<?xml version="1.0" encoding="UTF-8" standalone="no"?>
<svg
   xmlns:dc="http://purl.org/dc/elements/1.1/"
   xmlns:cc="http://creativecommons.org/ns#"
   xmlns:rdf="http://www.w3.org/1999/02/22-rdf-syntax-ns#"
   xmlns:svg="http://www.w3.org/2000/svg"
   xmlns="http://www.w3.org/2000/svg"
   xmlns:sodipodi="http://sodipodi.sourceforge.net/DTD/sodipodi-0.dtd"
   xmlns:inkscape="http://www.inkscape.org/namespaces/inkscape"
   height="16px"
   version="1.1"
   viewBox="0 0 16 16"
   width="16px"
   id="svg2"
   inkscape:version="0.48.5 r10040"
   sodipodi:docname="cards.svg">
  <metadata
     id="metadata16">
    <rdf:RDF>
      <cc:Work
         rdf:about="">
        <dc:format>image/svg+xml</dc:format>
        <dc:type
           rdf:resource="http://purl.org/dc/dcmitype/StillImage" />
        <dc:title></dc:title>
      </cc:Work>
    </rdf:RDF>
  </metadata>
  <sodipodi:namedview
     pagecolor="#ffffff"
     bordercolor="#666666"
     borderopacity="1"
     objecttolerance="10"
     gridtolerance="10"
     guidetolerance="10"
     inkscape:pageopacity="0"
     inkscape:pageshadow="2"
     inkscape:window-width="754"
     inkscape:window-height="480"
     id="namedview14"
     showgrid="false"
     inkscape:zoom="14.75"
     inkscape:cx="8"
     inkscape:cy="8"
     inkscape:window-x="1607"
     inkscape:window-y="1108"
     inkscape:window-maximized="0"
     inkscape:current-layer="svg2" />
  <desc
     id="desc6" />
  <defs
     id="defs8" />
  <g
     fill="none"
     fill-rule="evenodd"
     id="Page-1"
     stroke="none"
     stroke-width="1"
     style="fill:#333333;fill-opacity:1">
    <g
       fill="#000000"
       id="Core"
       transform="translate(-340.000000, -4.000000)"
       style="fill:#333333;fill-opacity:1">
      <g
         id="apps"
         transform="translate(340.000000, 4.000000)"
         style="fill:#333333;fill-opacity:1">
        <path
           d="M0,4 L4,4 L4,0 L0,0 L0,4 L0,4 Z M6,16 L10,16 L10,12 L6,12 L6,16 L6,16 Z M0,16 L4,16 L4,12 L0,12 L0,16 L0,16 Z M0,10 L4,10 L4,6 L0,6 L0,10 L0,10 Z M6,10 L10,10 L10,6 L6,6 L6,10 L6,10 Z M12,0 L12,4 L16,4 L16,0 L12,0 L12,0 Z M6,4 L10,4 L10,0 L6,0 L6,4 L6,4 Z M12,10 L16,10 L16,6 L12,6 L12,10 L12,10 Z M12,16 L16,16 L16,12 L12,12 L12,16 L12,16 Z"
           id="Shape"
           style="fill:#333333;fill-opacity:1" />
      </g>
    </g>
  </g>
</svg>
