<?xml version="1.0" encoding="UTF-8" standalone="no"?>
<svg
   xmlns:dc="http://purl.org/dc/elements/1.1/"
   xmlns:cc="http://creativecommons.org/ns#"
   xmlns:rdf="http://www.w3.org/1999/02/22-rdf-syntax-ns#"
   xmlns:svg="http://www.w3.org/2000/svg"
   xmlns="http://www.w3.org/2000/svg"
   xmlns:sodipodi="http://sodipodi.sourceforge.net/DTD/sodipodi-0.dtd"
   xmlns:inkscape="http://www.inkscape.org/namespaces/inkscape"
   height="18px"
   version="1.1"
   viewBox="0 0 18 18"
   width="18px"
   id="svg2"
   inkscape:version="0.48.5 r10040"
   sodipodi:docname="spreadsheet.svg"
   inkscape:export-filename="C:\Users\benoror\Dropbox\Habi\iis\PanaxUI\panaxui-angularjs\app\images\thumbnails\spreadsheet.png"
   inkscape:export-xdpi="860"
   inkscape:export-ydpi="860">
  <metadata
     id="metadata16">
    <rdf:RDF>
      <cc:Work
         rdf:about="">
        <dc:format>image/svg+xml</dc:format>
        <dc:type
           rdf:resource="http://purl.org/dc/dcmitype/StillImage" />
        <dc:title></dc:title>
      </cc:Work>
    </rdf:RDF>
  </metadata>
  <sodipodi:namedview
     pagecolor="#ffffff"
     bordercolor="#666666"
     borderopacity="1"
     objecttolerance="10"
     gridtolerance="10"
     guidetolerance="10"
     inkscape:pageopacity="0"
     inkscape:pageshadow="2"
     inkscape:window-width="930"
     inkscape:window-height="843"
     id="namedview14"
     showgrid="false"
     inkscape:zoom="13.111111"
     inkscape:cx="8.9999999"
     inkscape:cy="8.9999999"
     inkscape:window-x="50"
     inkscape:window-y="390"
     inkscape:window-maximized="0"
     inkscape:current-layer="svg2" />
  <desc
     id="desc6" />
  <defs
     id="defs8" />
  <g
     fill="none"
     fill-rule="evenodd"
     id="Page-1"
     stroke="none"
     stroke-width="1"
     style="fill:#333333;fill-opacity:1">
    <g
       fill="#000000"
       id="Core"
       transform="translate(-507.000000, -171.000000)"
       style="fill:#333333;fill-opacity:1">
      <g
         id="drive-spreadsheet"
         transform="translate(507.000000, 171.000000)"
         style="fill:#333333;fill-opacity:1">
        <path
           d="M16,0 L2,0 C0.9,0 0,0.9 0,2 L0,5 L0,16 C0,17.1 0.9,18 2,18 L16,18 C17.1,18 18,17.1 18,16 L18,2 C18,0.9 17.1,0 16,0 L16,0 Z M16,8 L8,8 L8,16 L6,16 L6,8 L2,8 L2,6 L6,6 L6,2 L8,2 L8,6 L16,6 L16,8 L16,8 Z"
           id="Shape"
           style="fill:#333333;fill-opacity:1" />
      </g>
    </g>
  </g>
</svg>
